<svg width="100" height="101" viewBox="0 0 100 101" fill="none" xmlns="http://www.w3.org/2000/svg">
<path d="M54.5454 42.8801V26.7802H23.5023C10.521 26.7802 0 37.3001 0 50.2801C0 63.26 10.521 73.79 23.5023 73.79H23.6323V57.6901H23.5123C19.4219 57.6901 16.1116 54.3801 16.1116 50.2901C16.1116 46.2001 19.4219 42.8901 23.5123 42.8901H54.5454V42.8801Z" fill="#007AFF"/>
<path d="M76.4981 26.78H76.3681V42.88H76.4881C80.5785 42.88 83.8889 46.19 83.8889 50.2799C83.8889 54.3699 80.5785 57.6799 76.4881 57.6799H45.4551V73.7799H76.4981C89.4794 73.7799 100 63.2599 100 50.2799C100 37.3 89.4794 26.77 76.4981 26.77V26.78Z" fill="#007AFF"/>
<path d="M57.3952 76.7702C57.3952 80.8601 54.0849 84.1701 49.9945 84.1701C45.9041 84.1701 42.5938 80.8601 42.5938 76.7702V45.7402H26.4922V76.7801C26.4922 89.7601 37.0132 100.28 49.9945 100.28C62.9758 100.28 73.4968 89.7601 73.4968 76.7801V76.6501H57.3952V76.7702Z" fill="white"/>
<path d="M49.9945 0.280273C37.0132 0.280273 26.4922 10.8002 26.4922 23.7802V23.9102H42.5938V23.7902C42.5938 19.7002 45.9041 16.3902 49.9945 16.3902C54.0849 16.3902 57.3952 19.7002 57.3952 23.7902V54.8201H73.4968V23.7802C73.4968 10.8002 62.9758 0.280273 49.9945 0.280273Z" fill="white"/>
</svg>
