<svg width="100" height="100" viewBox="0 0 100 100" fill="none" xmlns="http://www.w3.org/2000/svg">
<path d="M54.5454 42.6V26.5H23.5023C10.521 26.5 0 37.02 0 49.9999C0 62.9799 10.521 73.5099 23.5023 73.5099H23.6323V57.4099H23.5123C19.4219 57.4099 16.1116 54.0999 16.1116 50.0099C16.1116 45.9199 19.4219 42.61 23.5123 42.61H54.5454V42.6Z" fill="#007AFF"/>
<path d="M76.4977 26.4997H76.3676V42.5997H76.4877C80.5781 42.5997 83.8884 45.9097 83.8884 49.9997C83.8884 54.0897 80.5781 57.3996 76.4877 57.3996H45.4546V73.4996H76.4977C89.4789 73.4996 100 62.9796 100 49.9997C100 37.0197 89.4789 26.4897 76.4977 26.4897V26.4997Z" fill="#007AFF"/>
<path d="M57.3952 76.4899C57.3952 80.5799 54.0849 83.8899 49.9945 83.8899C45.9041 83.8899 42.5938 80.5799 42.5938 76.4899V45.46H26.4922V76.4999C26.4922 89.4798 37.0132 99.9998 49.9945 99.9998C62.9758 99.9998 73.4968 89.4798 73.4968 76.4999V76.3699H57.3952V76.4899Z" fill="black"/>
<path d="M49.9945 0C37.0132 0 26.4922 10.52 26.4922 23.4999V23.6299H42.5938V23.5099C42.5938 19.4199 45.9041 16.11 49.9945 16.11C54.0849 16.11 57.3952 19.4199 57.3952 23.5099V54.5399H73.4968V23.4999C73.4968 10.52 62.9758 0 49.9945 0Z" fill="black"/>
</svg>
